<svg xmlns="http://www.w3.org/2000/svg" xmlns:xlink="http://www.w3.org/1999/xlink" version="1.1" width="1200" height="595.2" viewBox="0 0 1200 595.2">

    <g transform="scale(8.571428571428571) translate(-105,0)">
        <defs id="SvgjsDefs2128"><linearGradient id="SvgjsLinearGradient2133"><stop id="SvgjsStop2134" stop-color="#ef4136" offset="0"/><stop id="SvgjsStop2135" stop-color="#fbb040" offset="1"/></linearGradient></defs><g id="SvgjsG2129" transform="matrix(2.1875,0,0,2.1875,105,-35.27781009674072)" fill="url(#SvgjsLinearGradient2133)"><g xmlns="http://www.w3.org/2000/svg" display="none"><rect x="-185.515" y="-323.283" display="inline" fill="url(#SvgjsLinearGradient2133)" width="815.231" height="398.286"/></g><g xmlns="http://www.w3.org/2000/svg"><path d="M22.913,22.543c-1.365,0-2.477,1.108-2.477,2.471c0,1.361,1.111,2.47,2.477,2.47c1.366,0,2.478-1.108,2.478-2.47   C25.391,23.652,24.279,22.543,22.913,22.543z"/><path d="M55.099,16.128c-4.909,0-8.902,3.986-8.902,8.886c0,2.104,0.74,4.036,1.969,5.56l-5.129,5.162   c-1.074-0.739-2.373-1.175-3.774-1.175c-1.535,0-2.946,0.526-4.074,1.399l-5.346-5.382c1.231-1.524,1.973-3.459,1.973-5.565   c0-4.899-3.993-8.886-8.902-8.886c-4.908,0-8.901,3.986-8.901,8.886c0,2.088,0.73,4.005,1.942,5.523l-5.34,5.328   c-1.106-0.816-2.469-1.304-3.947-1.304C2.991,34.562,0,37.547,0,41.217c0,3.669,2.991,6.654,6.667,6.654s6.666-2.985,6.666-6.654   c0-1.474-0.488-2.834-1.304-3.938l5.339-5.327c1.523,1.215,3.449,1.947,5.546,1.947c2.078,0,3.988-0.72,5.505-1.916l5.388,5.423   c-0.759,1.081-1.209,2.393-1.209,3.811c0,3.669,2.99,6.654,6.666,6.654s6.667-2.985,6.667-6.654c0-1.552-0.539-2.978-1.435-4.111   l5.093-5.127c1.517,1.198,3.429,1.92,5.51,1.92c4.908,0,8.901-3.985,8.901-8.885S60.007,16.128,55.099,16.128z M6.656,43.328   c-1.168,0-2.118-0.947-2.118-2.111c0-1.165,0.95-2.112,2.118-2.112c1.169,0,2.119,0.948,2.119,2.112   C8.775,42.381,7.825,43.328,6.656,43.328z M22.913,29.484c-2.469,0-4.477-2.005-4.477-4.47s2.008-4.471,4.477-4.471   s4.478,2.006,4.478,4.471S25.382,29.484,22.913,29.484z M39.263,43.328c-1.168,0-2.118-0.947-2.118-2.111   c0-1.165,0.95-2.112,2.118-2.112c1.169,0,2.119,0.948,2.119,2.112C41.382,42.381,40.432,43.328,39.263,43.328z M55.099,29.484   c-2.469,0-4.478-2.005-4.478-4.47s2.009-4.471,4.478-4.471s4.477,2.006,4.477,4.471S57.567,29.484,55.099,29.484z"/><path d="M55.099,22.543c-1.366,0-2.478,1.108-2.478,2.471c0,1.361,1.111,2.47,2.478,2.47c1.365,0,2.477-1.108,2.477-2.47   C57.575,23.652,56.464,22.543,55.099,22.543z"/></g></g>
    </g>
</svg>